<?xml version="1.0" standalone="no"?>
<!DOCTYPE svg PUBLIC "-//W3C//DTD SVG 20010904//EN"
 "http://www.w3.org/TR/2001/REC-SVG-20010904/DTD/svg10.dtd">
<svg version="1.0" xmlns="http://www.w3.org/2000/svg"
 width="308.000000pt" height="308.000000pt" viewBox="0 0 308.000000 308.000000"
 preserveAspectRatio="xMidYMid meet">
<metadata>
Created by potrace 1.14, written by Peter Selinger 2001-2017
</metadata>
<g transform="translate(0.000000,308.000000) scale(0.100000,-0.100000)"
fill="#000000" stroke="none">
<path d="M1249 2497 c-33 -18 -50 -36 -69 -74 -25 -50 -25 -50 -84 -56 -32 -4
-268 -7 -523 -7 l-464 0 -55 -54 -54 -55 0 -786 c0 -657 2 -790 14 -813 16
-31 61 -74 93 -91 16 -8 412 -11 1443 -11 l1420 0 55 53 55 53 0 791 0 790
-29 40 c-16 22 -49 50 -73 62 -43 21 -55 21 -510 21 l-466 0 -28 57 c-23 45
-38 62 -73 80 -43 22 -52 23 -326 23 -276 0 -283 0 -326 -23z m627 -33 c35
-17 74 -65 74 -91 0 -10 -82 -13 -375 -13 -293 0 -375 3 -375 13 0 21 38 75
62 89 35 19 151 27 375 23 166 -3 208 -7 239 -21z m1066 -177 c20 -8 47 -31
62 -50 l26 -34 -6 -754 c-3 -449 -9 -762 -15 -774 -5 -11 -26 -31 -46 -45
l-37 -25 -1386 0 -1386 0 -37 25 c-25 17 -40 37 -47 60 -7 30 -14 822 -11
1373 l1 157 34 38 34 37 299 6 c164 4 789 5 1389 3 929 -2 1097 -5 1126 -17z"/>
<path d="M2050 1999 c-122 -13 -221 -63 -318 -159 -121 -120 -182 -262 -182
-424 0 -168 51 -297 161 -407 119 -120 263 -169 439 -149 158 18 270 83 382
222 91 112 128 223 128 381 -1 106 -24 187 -80 281 -76 126 -235 238 -358 251
-32 3 -68 7 -82 9 -14 1 -54 -1 -90 -5z m175 -77 c88 -44 177 -173 212 -305
22 -84 22 -279 -1 -367 -36 -143 -122 -271 -213 -316 -58 -29 -183 -27 -243 4
-128 66 -200 207 -218 422 -15 182 16 332 93 445 42 61 112 117 169 135 49 15
156 6 201 -18z"/>
<path d="M533 1983 c-35 -7 -28 -19 22 -38 81 -30 80 -24 82 -465 1 -212 -3
-414 -8 -449 -11 -79 -33 -105 -101 -121 -28 -7 -47 -17 -45 -24 3 -8 100 -12
341 -14 l338 -2 62 30 c72 34 138 100 168 166 26 61 27 156 1 215 -33 74 -124
146 -228 179 l-39 13 54 24 c120 53 181 133 181 241 1 104 -47 174 -155 225
l-57 27 -297 -1 c-163 -1 -307 -4 -319 -6z m513 -58 c107 -31 160 -130 136
-250 -7 -31 -21 -70 -33 -86 -39 -56 -159 -99 -274 -99 l-55 0 -1 93 c-2 177
3 300 11 323 6 14 19 24 37 27 62 9 132 6 179 -8z m51 -525 c94 -42 127 -96
127 -215 1 -99 -21 -161 -73 -208 -55 -49 -96 -60 -213 -55 -85 3 -102 7 -115
23 -21 29 -15 461 7 476 26 18 212 3 267 -21z"/>
</g>
</svg>
